<mxfile host="65bd71144e">
    <diagram name="Page-1" id="74b105a0-9070-1c63-61bc-23e55f88626e">
        <mxGraphModel dx="1388" dy="515" grid="1" gridSize="10" guides="1" tooltips="1" connect="1" arrows="1" fold="1" page="1" pageScale="1.5" pageWidth="1169" pageHeight="826" background="none" math="0" shadow="0">
            <root>
                <mxCell id="0" style=";html=1;"/>
                <mxCell id="1" style=";html=1;" parent="0"/>
                <mxCell id="10b056a9c633e61c-30" value="High level architecture" style="text;strokeColor=none;fillColor=none;html=1;fontSize=24;fontStyle=1;verticalAlign=middle;align=center;" parent="1" vertex="1">
                    <mxGeometry x="80" y="40" width="1590" height="40" as="geometry"/>
                </mxCell>
                <mxCell id="DNbt_u2-VO2jvs_L7jP9-8" value="REST API" style="edgeStyle=none;orthogonalLoop=1;jettySize=auto;html=1;rounded=0;" parent="1" edge="1">
                    <mxGeometry width="100" relative="1" as="geometry">
                        <mxPoint x="980" y="470" as="sourcePoint"/>
                        <mxPoint x="1190" y="470" as="targetPoint"/>
                        <Array as="points"/>
                    </mxGeometry>
                </mxCell>
                <mxCell id="DNbt_u2-VO2jvs_L7jP9-22" value="Backend (Django)" style="swimlane;startSize=20;horizontal=1;containerType=tree;" parent="1" vertex="1">
                    <mxGeometry x="1190" y="390" width="400" height="440" as="geometry"/>
                </mxCell>
                <mxCell id="DNbt_u2-VO2jvs_L7jP9-24" value="Route handlers" style="whiteSpace=wrap;html=1;treeFolding=1;treeMoving=1;newEdgeStyle={&quot;edgeStyle&quot;:&quot;elbowEdgeStyle&quot;,&quot;startArrow&quot;:&quot;none&quot;,&quot;endArrow&quot;:&quot;none&quot;};" parent="DNbt_u2-VO2jvs_L7jP9-22" vertex="1">
                    <mxGeometry x="20" y="40" width="370" height="50" as="geometry"/>
                </mxCell>
                <mxCell id="DNbt_u2-VO2jvs_L7jP9-26" value="" style="edgeStyle=elbowEdgeStyle;rounded=0;orthogonalLoop=1;jettySize=auto;html=1;elbow=vertical;startArrow=none;endArrow=none;" parent="DNbt_u2-VO2jvs_L7jP9-22" source="DNbt_u2-VO2jvs_L7jP9-24" target="DNbt_u2-VO2jvs_L7jP9-27" edge="1">
                    <mxGeometry relative="1" as="geometry"/>
                </mxCell>
                <mxCell id="DNbt_u2-VO2jvs_L7jP9-27" value="Business logic" style="whiteSpace=wrap;html=1;treeFolding=1;treeMoving=1;newEdgeStyle={&quot;edgeStyle&quot;:&quot;elbowEdgeStyle&quot;,&quot;startArrow&quot;:&quot;none&quot;,&quot;endArrow&quot;:&quot;none&quot;};" parent="DNbt_u2-VO2jvs_L7jP9-22" vertex="1">
                    <mxGeometry x="20" y="130" width="370" height="170" as="geometry"/>
                </mxCell>
                <mxCell id="DNbt_u2-VO2jvs_L7jP9-28" value="" style="edgeStyle=elbowEdgeStyle;rounded=0;orthogonalLoop=1;jettySize=auto;html=1;elbow=vertical;startArrow=none;endArrow=none;" parent="DNbt_u2-VO2jvs_L7jP9-22" source="DNbt_u2-VO2jvs_L7jP9-27" target="DNbt_u2-VO2jvs_L7jP9-29" edge="1">
                    <mxGeometry relative="1" as="geometry">
                        <mxPoint x="1395" y="470" as="sourcePoint"/>
                    </mxGeometry>
                </mxCell>
                <mxCell id="DNbt_u2-VO2jvs_L7jP9-29" value="Data access" style="whiteSpace=wrap;html=1;treeFolding=1;treeMoving=1;newEdgeStyle={&quot;edgeStyle&quot;:&quot;elbowEdgeStyle&quot;,&quot;startArrow&quot;:&quot;none&quot;,&quot;endArrow&quot;:&quot;none&quot;};" parent="DNbt_u2-VO2jvs_L7jP9-22" vertex="1">
                    <mxGeometry x="20" y="350" width="370" height="50" as="geometry"/>
                </mxCell>
                <mxCell id="DNbt_u2-VO2jvs_L7jP9-32" value="Auth" style="rounded=1;whiteSpace=wrap;html=1;" parent="DNbt_u2-VO2jvs_L7jP9-22" vertex="1">
                    <mxGeometry x="50" y="250" width="100" height="40" as="geometry"/>
                </mxCell>
                <mxCell id="DNbt_u2-VO2jvs_L7jP9-33" value="Jobs" style="rounded=1;whiteSpace=wrap;html=1;" parent="DNbt_u2-VO2jvs_L7jP9-22" vertex="1">
                    <mxGeometry x="160" y="250" width="100" height="40" as="geometry"/>
                </mxCell>
                <mxCell id="DNbt_u2-VO2jvs_L7jP9-34" value="Job Applications" style="rounded=1;whiteSpace=wrap;html=1;" parent="DNbt_u2-VO2jvs_L7jP9-22" vertex="1">
                    <mxGeometry x="270" y="250" width="100" height="40" as="geometry"/>
                </mxCell>
                <mxCell id="DNbt_u2-VO2jvs_L7jP9-35" value="Tags" style="rounded=1;whiteSpace=wrap;html=1;" parent="DNbt_u2-VO2jvs_L7jP9-22" vertex="1">
                    <mxGeometry x="270" y="140" width="100" height="40" as="geometry"/>
                </mxCell>
                <mxCell id="DNbt_u2-VO2jvs_L7jP9-38" value="Companies" style="rounded=1;whiteSpace=wrap;html=1;" parent="DNbt_u2-VO2jvs_L7jP9-22" vertex="1">
                    <mxGeometry x="50" y="140" width="100" height="40" as="geometry"/>
                </mxCell>
                <mxCell id="DNbt_u2-VO2jvs_L7jP9-39" value="" style="image;aspect=fixed;perimeter=ellipsePerimeter;html=1;align=center;shadow=1;dashed=0;spacingTop=3;image=img/lib/active_directory/databases.svg;sketch=1;curveFitting=1;jiggle=2;imageBackground=default;fillStyle=solid;" parent="1" vertex="1">
                    <mxGeometry x="1440" y="881" width="150" height="147" as="geometry"/>
                </mxCell>
                <mxCell id="DNbt_u2-VO2jvs_L7jP9-41" value="Postgresql DB" style="text;html=1;align=center;verticalAlign=middle;resizable=0;points=[];autosize=1;strokeColor=none;fillColor=none;" parent="1" vertex="1">
                    <mxGeometry x="1465" y="1028" width="100" height="30" as="geometry"/>
                </mxCell>
                <mxCell id="DNbt_u2-VO2jvs_L7jP9-42" value="" style="strokeWidth=1;outlineConnect=0;dashed=0;align=center;html=1;fontSize=8;shape=mxgraph.eip.messageChannel;verticalLabelPosition=bottom;labelBackgroundColor=#ffffff;verticalAlign=top;" parent="1" vertex="1">
                    <mxGeometry x="1180" y="960" width="130" height="20" as="geometry"/>
                </mxCell>
                <mxCell id="DNbt_u2-VO2jvs_L7jP9-44" value="Queue" style="text;html=1;align=center;verticalAlign=middle;resizable=0;points=[];autosize=1;strokeColor=none;fillColor=none;" parent="1" vertex="1">
                    <mxGeometry x="1215" y="980" width="60" height="30" as="geometry"/>
                </mxCell>
                <mxCell id="DNbt_u2-VO2jvs_L7jP9-51" style="edgeStyle=orthogonalEdgeStyle;rounded=0;orthogonalLoop=1;jettySize=auto;html=1;exitX=0.25;exitY=1;exitDx=0;exitDy=0;entryX=0;entryY=0;entryDx=70;entryDy=0;entryPerimeter=0;" parent="1" source="DNbt_u2-VO2jvs_L7jP9-22" target="DNbt_u2-VO2jvs_L7jP9-42" edge="1">
                    <mxGeometry relative="1" as="geometry"/>
                </mxCell>
                <mxCell id="DNbt_u2-VO2jvs_L7jP9-52" style="edgeStyle=orthogonalEdgeStyle;rounded=0;orthogonalLoop=1;jettySize=auto;html=1;exitX=0.75;exitY=1;exitDx=0;exitDy=0;entryX=0.547;entryY=0.027;entryDx=0;entryDy=0;entryPerimeter=0;" parent="1" source="DNbt_u2-VO2jvs_L7jP9-22" target="DNbt_u2-VO2jvs_L7jP9-39" edge="1">
                    <mxGeometry relative="1" as="geometry"/>
                </mxCell>
                <mxCell id="DNbt_u2-VO2jvs_L7jP9-53" value="" style="rounded=1;whiteSpace=wrap;html=1;strokeWidth=2;fillWeight=4;hachureGap=8;hachureAngle=45;fillColor=#1ba1e2;sketch=1;" parent="1" vertex="1">
                    <mxGeometry x="800" y="890" width="120" height="60" as="geometry"/>
                </mxCell>
                <mxCell id="DNbt_u2-VO2jvs_L7jP9-54" value="Elasticsearch" style="text;html=1;align=center;verticalAlign=middle;resizable=0;points=[];autosize=1;strokeColor=none;fillColor=none;" parent="1" vertex="1">
                    <mxGeometry x="815" y="955" width="90" height="30" as="geometry"/>
                </mxCell>
                <mxCell id="DNbt_u2-VO2jvs_L7jP9-56" value="index job" style="endArrow=classic;html=1;rounded=0;exitX=0;exitY=0.5;exitDx=2.7;exitDy=0;entryX=1;entryY=0.25;entryDx=0;entryDy=0;exitPerimeter=0;" parent="1" source="DNbt_u2-VO2jvs_L7jP9-42" target="DNbt_u2-VO2jvs_L7jP9-53" edge="1">
                    <mxGeometry relative="1" as="geometry">
                        <mxPoint x="1060" y="890" as="sourcePoint"/>
                        <mxPoint x="1160" y="890" as="targetPoint"/>
                        <Array as="points">
                            <mxPoint x="1050" y="970"/>
                        </Array>
                    </mxGeometry>
                </mxCell>
                <mxCell id="DNbt_u2-VO2jvs_L7jP9-58" value="" style="endArrow=classic;html=1;rounded=0;entryX=0.842;entryY=-0.033;entryDx=0;entryDy=0;entryPerimeter=0;" parent="1" target="DNbt_u2-VO2jvs_L7jP9-53" edge="1">
                    <mxGeometry relative="1" as="geometry">
                        <mxPoint x="1190" y="700" as="sourcePoint"/>
                        <mxPoint x="910" y="880" as="targetPoint"/>
                    </mxGeometry>
                </mxCell>
                <mxCell id="DNbt_u2-VO2jvs_L7jP9-61" value="search" style="edgeLabel;html=1;align=center;verticalAlign=middle;resizable=0;points=[];" parent="DNbt_u2-VO2jvs_L7jP9-58" vertex="1" connectable="0">
                    <mxGeometry x="-0.0235" y="1" relative="1" as="geometry">
                        <mxPoint x="1" as="offset"/>
                    </mxGeometry>
                </mxCell>
                <mxCell id="DNbt_u2-VO2jvs_L7jP9-62" value="Frontend (Vue)" style="swimlane;startSize=20;horizontal=1;containerType=tree;" parent="1" vertex="1">
                    <mxGeometry x="490" y="350" width="490" height="350" as="geometry"/>
                </mxCell>
                <mxCell id="DNbt_u2-VO2jvs_L7jP9-73" value="State management (Pinia)" style="whiteSpace=wrap;html=1;treeFolding=1;treeMoving=1;newEdgeStyle={&quot;edgeStyle&quot;:&quot;elbowEdgeStyle&quot;,&quot;startArrow&quot;:&quot;none&quot;,&quot;endArrow&quot;:&quot;none&quot;};" parent="DNbt_u2-VO2jvs_L7jP9-62" vertex="1">
                    <mxGeometry x="340" y="270" width="125" height="50" as="geometry"/>
                </mxCell>
                <mxCell id="DNbt_u2-VO2jvs_L7jP9-98" value="Module (e.g Job)" style="swimlane;startSize=20;horizontal=1;containerType=tree;newEdgeStyle={&quot;edgeStyle&quot;:&quot;elbowEdgeStyle&quot;,&quot;startArrow&quot;:&quot;none&quot;,&quot;endArrow&quot;:&quot;none&quot;};" parent="DNbt_u2-VO2jvs_L7jP9-62" vertex="1">
                    <mxGeometry x="25" y="50" width="440" height="180" as="geometry"/>
                </mxCell>
                <mxCell id="DNbt_u2-VO2jvs_L7jP9-104" value="Pages" style="rounded=1;whiteSpace=wrap;html=1;" parent="DNbt_u2-VO2jvs_L7jP9-98" vertex="1">
                    <mxGeometry x="20" y="30" width="120" height="60" as="geometry"/>
                </mxCell>
                <mxCell id="DNbt_u2-VO2jvs_L7jP9-105" value="Components" style="rounded=1;whiteSpace=wrap;html=1;" parent="DNbt_u2-VO2jvs_L7jP9-98" vertex="1">
                    <mxGeometry x="155" y="30" width="120" height="60" as="geometry"/>
                </mxCell>
                <mxCell id="DNbt_u2-VO2jvs_L7jP9-106" value="Services (http)" style="rounded=1;whiteSpace=wrap;html=1;" parent="DNbt_u2-VO2jvs_L7jP9-98" vertex="1">
                    <mxGeometry x="290" y="30" width="120" height="60" as="geometry"/>
                </mxCell>
                <mxCell id="DNbt_u2-VO2jvs_L7jP9-107" value="Constants" style="rounded=1;whiteSpace=wrap;html=1;" parent="DNbt_u2-VO2jvs_L7jP9-98" vertex="1">
                    <mxGeometry x="20" y="110" width="120" height="60" as="geometry"/>
                </mxCell>
                <mxCell id="DNbt_u2-VO2jvs_L7jP9-110" value="Logic" style="rounded=1;whiteSpace=wrap;html=1;" parent="DNbt_u2-VO2jvs_L7jP9-98" vertex="1">
                    <mxGeometry x="290" y="110" width="120" height="60" as="geometry"/>
                </mxCell>
                <mxCell id="DNbt_u2-VO2jvs_L7jP9-108" value="UI components" style="whiteSpace=wrap;html=1;treeFolding=1;treeMoving=1;newEdgeStyle={&quot;edgeStyle&quot;:&quot;elbowEdgeStyle&quot;,&quot;startArrow&quot;:&quot;none&quot;,&quot;endArrow&quot;:&quot;none&quot;};" parent="DNbt_u2-VO2jvs_L7jP9-62" vertex="1">
                    <mxGeometry x="182.5" y="270" width="137.5" height="50" as="geometry"/>
                </mxCell>
                <mxCell id="DNbt_u2-VO2jvs_L7jP9-109" value="Providers (e.g backend SDK)" style="whiteSpace=wrap;html=1;treeFolding=1;treeMoving=1;newEdgeStyle={&quot;edgeStyle&quot;:&quot;elbowEdgeStyle&quot;,&quot;startArrow&quot;:&quot;none&quot;,&quot;endArrow&quot;:&quot;none&quot;};" parent="DNbt_u2-VO2jvs_L7jP9-62" vertex="1">
                    <mxGeometry x="30" y="270" width="135" height="50" as="geometry"/>
                </mxCell>
            </root>
        </mxGraphModel>
    </diagram>
</mxfile>